<svg xmlns="http://www.w3.org/2000/svg" xmlns:svg="http://www.w3.org/2000/svg" id="svg845" width="363.328" height="347.876" version="1.1" viewBox="0 0 363.328 347.876"><metadata id="metadata851"/><path id="path843" fill="#4a4a4a" stroke-width="18.5" d="m 352.89166,0.0027074 c -0.56104,0.008 -1.137,0.0575 -1.688,0.1562 -0.01,0.002 -0.021,-0.002 -0.031,0 l -55.625,9.5 c -3.538,0.6069996 -6.504,3.0328996 -7.813,6.3749996 a 2.529,2.529 0 0 0 0,0.0312 l -25.812,66.187 -251.909999,6.282 c -2.8970001,0.072 -5.6170001,1.38 -7.5000001,3.562 -1.88400003,2.182 -2.79000003,5.083 -2.43800003,7.969003 l 13.90600013,115.03 c 0.574,4.826 4.561,8.653 9.407,9.031 l 179.589999,14.282 35.594,28 a 2.529,2.529 0 0 0 0.125,0.093 c 0.038,0.027 0.086,0.037 0.125,0.063 0.044,0.029 0.081,0.065 0.125,0.093 6.496,4.849 8.106,11.455 7.188,15.125 -0.52301,2.092 -1.322,3.629 -3.219,4.813 -1.897,1.184 -5.174,2.041 -10.781,1.719 a 2.529,2.529 0 0 0 -0.063,0 c -0.17999,-0.006 -0.383,-0.004 -0.56299,0 -0.03,0 -0.064,-0.001 -0.094,0 l -214.189999,0.625 h -0.031 c -5.629,-0.036 -10.3660001,4.685 -10.3440001,10.312 0.022,5.628 4.7780001,10.331 10.4060001,10.25 h 0.031 l 15.657,-0.031 c -5.818,3.708 -9.719,10.195 -9.719,17.563 0,11.458 9.385,20.843 20.844,20.843 11.458,0 20.843,-9.385 20.843,-20.843 0,-7.408 -3.911,-13.959 -9.781,-17.657 l 176.379999,-0.5 c -6.354,3.583 -10.687,10.384 -10.687,18.157 0,11.458 9.385,20.843 20.843,20.843 11.459,0 20.844,-9.385 20.844,-20.843 0,-9.952 -7.069,-18.341 -16.437,-20.375 8.857,-3.134 15.661,-9.595 19.875,-19.469 a 2.529,2.529 0 0 0 0.15601,-0.375 c 3.23,-12.917 -2.499,-26.959 -14.313,-36.094 a 2.529,2.529 0 0 0 -0.094,-0.094 c -0.029,-0.022 -0.034,-0.071 -0.062,-0.093 a 2.529,2.529 0 0 0 -0.34302,-0.34399 l -25.219,-19.781 78.656,-201.470001 49.906,-8.5 c 0.01,-0.002 0.022,0.002 0.031,0 5.243,-0.8429 9.077,-5.7292 8.625,-11.0309996 -0.45196,-5.3122 -5.081,-9.4786 -10.406,-9.4062000038 h 0.001 z m -98.563,98.1249996 -14.5,37.188003 h -18.906 V 98.971707 Z m -40.625,1.032 v 36.156003 h -34.906 v -35.281 z m -42.125,1.031003 v 35.125 h -34.906 v -34.25 z m -42.125,1.062 v 34.063 H 94.547661 v -33.188 z m -42.124999,1.063 v 33 h -34.906 v -32.125 z m -42.125,1.031 v 31.969 h -25.594 l -3.781,-31.219 z m -24.719,39.156 h 24.719 v 32.657 h -20.781 z m 31.938,0 h 34.906 v 32.657 h -34.906 z m 42.125,0 h 34.905999 v 32.657 H 94.547661 Z m 42.124999,0 h 34.906 v 32.657 h -34.906 z m 42.125,0 h 34.906 v 32.657 h -34.906 z m 42.125,0 h 16.125 l -12.75,32.657 h -3.375 z m -195.619999,39.844 h 19.906 v 23.438 l -17.25,-1.375 z m 27.125,0 h 34.906 v 26.781 l -34.906,-2.781 z m 42.125,0 h 34.905999 v 30.125 l -34.905999,-2.75 z m 42.124999,0 h 34.906 v 33.5 l -34.906,-2.781 z m 42.125,0 h 34.906 v 19.875 l -6.625,16.969 c -0.85998,-0.41702 -1.798,-0.673 -2.75,-0.75 l -25.531,-2.031 z m 42.125,0 h 0.53101 l -0.531,1.469 v -1.469 z m -176.839999,132.44 c 6.811,0 12.25,5.439 12.25,12.25 0,6.811 -5.439,12.218 -12.25,12.218 -6.811,0 -12.25,-5.407 -12.25,-12.218 0,-6.811 5.439,-12.25 12.25,-12.25 z m 197.589999,0 c 6.811,0 12.25,5.439 12.25,12.25 0,6.811 -5.439,12.218 -12.25,12.218 -6.811,0 -12.25,-5.407 -12.25,-12.218 0,-6.811 5.439,-12.25 12.25,-12.25 z m -197.589999,5.812 c -3.7,0 -6.656,2.956 -6.656,6.656 0,3.701 2.956,6.625 6.656,6.625 3.7,0 6.656,-2.924 6.656,-6.625 0,-3.7 -2.956,-6.656 -6.656,-6.656 z m 197.589999,0 c -3.7,0 -6.656,2.956 -6.656,6.656 0,3.701 2.956,6.625 6.656,6.625 3.7,0 6.656,-2.924 6.656,-6.625 0,-3.7 -2.956,-6.656 -6.656,-6.656 z"/></svg>